<?xml version="1.0" standalone="no"?>
<!DOCTYPE svg PUBLIC "-//W3C//DTD SVG 20010904//EN" "http://www.w3.org/TR/2001/REC-SVG-20010904/DTD/svg10.dtd">
<!-- Created using Krita: https://krita.org -->
<svg xmlns="http://www.w3.org/2000/svg" 
    xmlns:xlink="http://www.w3.org/1999/xlink"
    xmlns:krita="http://krita.org/namespaces/svg/krita"
    xmlns:sodipodi="http://sodipodi.sourceforge.net/DTD/sodipodi-0.dtd"
    width="1000pt"
    height="1000pt"
    viewBox="0 0 1000 1000">
<defs/>
<path id="shape0" transform="matrix(0.962471600094464 0.442127339389232 -0.442127339389232 0.962471600094464 756.629474397461 273.827344456975)" fill="#be5800" fill-rule="evenodd" stroke="#be5800" stroke-width="2" stroke-linecap="square" stroke-linejoin="bevel" d="M203.5 518L265.5 511L358.5 464.5L390.5 422.5L335 354.5L307 283.5L280 141.5L237 43.5L208 0L92 62.5L0 92L9.00002 149L58 252L118 327.5L158 401.5L185.5 474.5L203.5 518"/><path id="shape1" transform="matrix(0.962471600094464 0.442127339389232 -0.442127339389232 0.962471600094464 912.677778284614 418.358846697542)" fill="#fed901" fill-rule="evenodd" stroke="#fed901" stroke-width="2" stroke-linecap="square" stroke-linejoin="bevel" d="M0 23.259L0.707107 101.748L53.033 214.178L91.9239 258.018L115.966 332.265L130.108 354.892L159.099 320.244L107.48 195.793L79.9031 84.0702L40.3051 0L0 23.259"/><path id="shape2" transform="matrix(0.962471600094464 0.442127339389232 -0.442127339389232 0.962471600094464 736.9651546459 424.093467073286)" fill="#cf7629" fill-rule="evenodd" stroke="#cf7629" stroke-width="2" stroke-linecap="square" stroke-linejoin="bevel" d="M16.2635 9.19239L85.5599 0L129.401 102.53L188.798 202.94L199.404 286.378L151.321 318.905L116.673 214.253L51.6188 120.915L0 45.9619L16.2635 9.19239"/><path id="shape3" transform="matrix(0.962471600094464 0.442127339389232 -0.442127339389232 0.962471600094464 751.279839068842 344.218018603112)" fill="#cf7629" fill-rule="evenodd" stroke="#cf7629" stroke-width="2" stroke-linecap="square" stroke-linejoin="bevel" d="M26.7391 134.043L0 91.3913L4.43478 44.4348L61.9565 21.0217L94.0435 0L104.217 75.1522L117 122.304L52.0435 129.543L26.7391 134.043"/><path id="shape4" transform="matrix(0.962471600094464 0.442127339389232 -0.442127339389232 0.962471600094464 756.639078462351 273.806437268303)" fill="#eee0d4" fill-rule="evenodd" stroke="#eee0d4" stroke-width="2" stroke-linecap="square" stroke-linejoin="bevel" d="M0 90.913L8.32612 146.804L53 137.413L170.457 87.8152L230.848 53.3804L234.304 39.5544L205.609 0L93.2392 59.7717L0 90.913"/><path id="shape5" transform="matrix(0.962471600094464 0.442127339389232 -0.442127339389232 0.962471600094464 761.036323503713 264.234028837706)" fill="#dac2b0" fill-rule="evenodd" stroke="#dac2b0" stroke-width="2" stroke-linecap="square" stroke-linejoin="bevel" d="M0 96.6848L10.0218 77.5761L49.4783 50.8696L71.0653 43.337L99.6957 28.4022L108.957 21.6848L125.391 11.6087L138.109 12.5217L148.804 5.34783L176.13 0.652174L189.891 0L205.739 9.65217L195.761 18.0978L189.435 25.2391L157.413 36.0652L136.413 57.7174L117.696 67.0435L70.7392 78.3913L64.5435 88.0761L74.7826 98.2826L60.4348 105.652L43.6087 107.087L37.7392 97.5652L33.174 91.7609L27.3696 90.75L7.60873 99.4891L0 96.6848"/><path id="shape6" transform="matrix(0.962471600094464 0.442127339389232 -0.442127339389232 0.962471600094464 725.601317329474 381.35508203935)" fill="#ffffff" fill-rule="evenodd" stroke="#ffffff" stroke-width="2" stroke-linecap="square" stroke-linejoin="bevel" d="M0 0L7.83966 50.2661L39.3828 113.076L76.1831 150.522L46.1157 56.8606L25.6403 9.59206L0 0"/><path id="shape7" transform="matrix(0.962471600094464 0.442127339389232 -0.442127339389232 0.962471600094464 759.389480741799 745.774274451913)" fill="#b7b9b9" fill-rule="evenodd" stroke="#b7b9b9" stroke-width="2" stroke-linecap="square" stroke-linejoin="bevel" d="M0 76.3214L11.9901 110.447L75.2608 107.542L170.259 62.0717L204.569 17.7084L179.667 0L142.497 39.1983L61.5183 71.0181L0 76.3214"/><path id="shape8" transform="matrix(0.962471600094464 0.442127339389232 -0.442127339389232 0.962471600094464 759.174509139083 795.309500626083)" fill="#fff38b" fill-rule="evenodd" stroke="#fff38b" stroke-width="2" stroke-linecap="square" stroke-linejoin="bevel" d="M0 27.4239L51.7174 0L51.8478 10.337L76.3696 6.19565L75.9783 12.4239L39.0652 27.75L0 27.4239"/><path id="shape9" transform="matrix(0.962471600094464 0.442127339389232 -0.442127339389232 0.962471600094464 873.766658825213 786.072737739067)" fill="#fff38b" fill-rule="evenodd" stroke="#fff38b" stroke-width="2" stroke-linecap="square" stroke-linejoin="bevel" d="M5.41304 33.2609L25.5 22.5978L44.2174 1.95652L59.2174 0L53.087 18.3587L27.587 46.7935L3.97826 56.2826L22.2391 35.0543L0 40.8913L5.41304 33.2609"/><path id="shape10" transform="matrix(1.05154703078678 0 0 1.05154703078678 370.63766386328 71.1623297964324)" fill="#c7bdb5" fill-rule="evenodd" stroke="#c7bdb5" stroke-width="2" stroke-linecap="square" stroke-linejoin="bevel" d="M6.52174 637.043L53.4783 752.739L91.5652 807.261L133.565 817.956L177.391 799.696L241.304 651.13L252.261 529.435L194.348 370.696L175.043 288.261L199.826 141.652L199.304 55.1739L152.609 0L93.1304 8.47826L53.2174 60.1304L52.6956 142.043L78.5217 249.261L77.7391 340.696L28.1739 444.826L0 586.304L6.52174 637.043"/><path id="shape11" transform="matrix(1.05154703078678 0 0 1.05154703078678 445.54511721522 306.687357828027)" fill="#f23e0f" fill-rule="evenodd" stroke="#f23e0f" stroke-width="2" stroke-linecap="square" stroke-linejoin="bevel" d="M0 0L42.7953 13.2352L74.8918 13.3274L114.644 1.29124L107.726 36.9386L63.3629 41.9191L20.4754 35.3707L5.62611 29.0067L5.16495 21.5821L0 0"/><path id="shape12" transform="matrix(1.05154703078678 0 0 1.05154703078678 450.782337943183 361.775161040676)" fill="#f23e0f" fill-rule="evenodd" stroke="#f23e0f" stroke-width="2" stroke-linecap="square" stroke-linejoin="bevel" d="M1.38347 0L43.8099 14.4342L78.3966 13.6041L101.547 8.85421L101.362 20.0142L103.484 39.0138L67.79 41.1352L33.2033 40.9968L14.4803 35.3246L0 27.1621L1.38347 0"/><path id="shape13" transform="matrix(1.05154703078678 0 0 1.05154703078678 375.255351917361 458.223093054989)" fill="#776c64" fill-rule="evenodd" stroke="#776c64" stroke-width="2" stroke-linecap="square" stroke-linejoin="bevel" d="M56.8696 15.7391L25.0435 123.522L0 220.435L10.6957 285.652L50.6087 384.913L91.5652 432.913L129.652 423.913L133.304 347.609L76.9565 291.13L50.087 225.391L72 148.826L94.9565 97.8261L91.0435 1.56522L68.6087 0L56.8696 15.7391"/><path id="shape14" transform="matrix(1.05154703078678 0 0 1.05154703078678 477.026819428621 83.3694263322512)" fill="#ece5e0" fill-rule="evenodd" stroke="#ece5e0" stroke-width="2" stroke-linecap="square" stroke-linejoin="bevel" d="M29.7391 1.69565L51.3913 0L88.4348 55.1739L80.087 120.652L59.7391 193.826L33.913 101.609L0 35.7391L29.7391 1.69565"/><path id="shape15" transform="matrix(1.05154703078678 0 0 1.05154703078678 494.948824887119 430.654272341023)" fill="#ece5e0" fill-rule="evenodd" stroke="#ece5e0" stroke-width="2" stroke-linecap="square" stroke-linejoin="bevel" d="M53.9131 16.8261L115.739 174.783L97.2174 237.652L0 0L53.9131 16.8261"/><path id="shape16" transform="matrix(6.12303176911189e-17 1 -1 6.12303176911189e-17 353.28260974271 229.717391255555)" fill="#f23e0f" fill-rule="evenodd" stroke="#f23e0f" stroke-width="2" stroke-linecap="square" stroke-linejoin="bevel" d="M0 117.261L103.435 0L258.783 16.4348L317.739 174.848L209.087 303.783L56.6087 273.717L0 117.261"/><path id="shape17" transform="matrix(6.12303176911189e-17 1 -1 6.12303176911189e-17 335.934783684236 231.804347773868)" fill="#8b1c00" fill-rule="evenodd" stroke="#8b1c00" stroke-width="2" stroke-linecap="square" stroke-linejoin="bevel" d="M4.95652 95.6087L112.565 18L256.565 0L262.174 139.891L204.261 284.283L78.7826 207.978L0 98.6739L4.95652 95.6087"/><path id="shape18" transform="matrix(6.12303176911189e-17 1 -1 6.12303176911189e-17 353.543479307499 236.630434722466)" fill="#e27356" fill-rule="evenodd" stroke="#e27356" stroke-width="2" stroke-linecap="square" stroke-linejoin="bevel" d="M0 109.761L100.304 0L245.739 16.8261L104.87 36.7174L0 109.761"/><path id="shape19" transform="matrix(6.12303176911189e-17 1 -1 6.12303176911189e-17 236.673914281993 232.71739125063)" fill="#e27356" fill-rule="evenodd" stroke="#e27356" stroke-width="2" stroke-linecap="square" stroke-linejoin="bevel" d="M0 0L77.8696 108.522L50.2174 153L0 0"/><path id="shape20" transform="matrix(6.12303176911189e-17 1 -1 6.12303176911189e-17 315.826064954859 311.021742748262)" fill="#d99584" fill-rule="evenodd" stroke="#d99584" stroke-width="2" stroke-linecap="square" stroke-linejoin="bevel" d="M0 187.793L31.1087 0.880435L34.6304 0L1.95652 190.109L0 187.793"/><path id="shape21" transform="matrix(6.12303176911189e-17 1 -1 6.12303176911189e-17 314.989108405846 343.826091643334)" fill="#d99584" fill-rule="evenodd" stroke="#d99584" stroke-width="2" stroke-linecap="square" stroke-linejoin="bevel" d="M2.21739 0L148.826 118.043L147.196 122.641L0 2.77174L2.21739 0"/><path id="shape22" transform="matrix(6.12303176911189e-17 1 -1 6.12303176911189e-17 194.644015025566 312.41461062653)" fill="#9c1f00" fill-rule="evenodd" stroke="#9c1f00" stroke-width="2" stroke-linecap="square" stroke-linejoin="bevel" d="M0 67.5594L182.065 0L122.852 146.325L0 67.5594"/><path id="shape23" transform="matrix(6.12303176911189e-17 1 -1 6.12303176911189e-17 193.737086310476 437.710858908605)" fill="#c9330c" fill-rule="evenodd" stroke="#c9330c" stroke-width="2" stroke-linecap="square" stroke-linejoin="bevel" d="M58.0135 0L107.173 17.0167L0 145.034L58.0135 0"/><path id="shape24" transform="matrix(6.12303176911189e-17 1 -1 6.12303176911189e-17 355.172652963721 228.776171787634)" fill="#e09d8c" fill-rule="evenodd" stroke="#e09d8c" stroke-width="2" stroke-linecap="square" stroke-linejoin="bevel" d="M109.294 0L114.92 38.5066L0 116.027L109.294 0"/><path id="shape25" transform="matrix(6.12303176911189e-17 1 -1 6.12303176911189e-17 150.511388894963 390.350064402101)" fill="#ffffff" fill-rule="evenodd" stroke="#ffffff" stroke-width="2" stroke-linecap="square" stroke-linejoin="bevel" d="M38.0915 1.19901L54.1398 11.0216L50.5428 14.6187L35.6013 9.22313L27.116 15.956L39.3828 30.9436L19.553 48.3292L2.49025 47.4069L0 35.2324L8.20859 24.8563L13.0968 31.912L12.0823 40.4895L23.2423 32.7421L22.7811 23.7034L16.2327 19.0919L32.5577 0L38.0915 1.19901"/><path id="shape26" transform="matrix(6.12303176911189e-17 1 -1 6.12303176911189e-17 314.882965948315 415.05268521242)" fill="#ffffff" fill-rule="evenodd" stroke="#ffffff" stroke-width="2" stroke-linecap="square" stroke-linejoin="bevel" d="M0 7.37851L5.07272 15.8638L21.3054 11.0216L18.0773 42.5186L41.3196 57.8752L52.1107 41.7347L44.4555 31.5892L36.9848 33.8489L39.7517 41.7808L28.315 39.7978L32.5577 18.354L27.116 0L0 7.37851"/><path id="shape27" transform="matrix(6.12303176911189e-17 1 -1 6.12303176911189e-17 226.802059138654 372.902973786226)" fill="#ffffff" fill-rule="evenodd" stroke="#ffffff" stroke-width="2" stroke-linecap="square" stroke-linejoin="bevel" d="M5.25719 43.7638L44.9167 0L51.3728 6.22561L23.519 39.89L30.8053 50.6811L0 53.7709L5.25719 43.7638"/><path id="shape28" transform="matrix(6.12303176911189e-17 1 -1 6.12303176911189e-17 246.170635505176 346.24812345325)" fill="#ffffff" fill-rule="evenodd" stroke="#ffffff" stroke-width="2" stroke-linecap="square" stroke-linejoin="bevel" d="M17.0628 21.1671L22.1355 5.62611L44.0866 0L55.5233 10.9755L51.6495 26.9315L37.4459 33.3416L37.1692 26.9315L45.6545 17.939L35.7858 8.02412L27.2082 13.973L29.6985 24.5335L36.8003 27.3005L36.4314 32.9266L33.9411 46.6229L25.7325 40.259L20.5676 28.9145L12.8202 33.8028L12.1745 45.47L19.0919 46.9457L26.0092 38.7372L33.9411 46.5307L24.5335 54.4626L7.28627 54.6009L0 39.3828L4.88826 27.0238L13.558 23.519L17.0628 21.1671"/><path id="shape29" transform="matrix(6.12303176911189e-17 1 -1 6.12303176911189e-17 253.779693843758 272.924229704648)" fill="#ffffff" fill-rule="evenodd" stroke="#ffffff" stroke-width="2" stroke-linecap="square" stroke-linejoin="bevel" d="M0.783966 7.30933L2.49025 17.7776L0 22.0663L2.12132 25.5481L8.48528 22.9425L16.0482 59.1433L21.9972 56.0766L25.3636 0L9.31536 11.1139L13.3735 15.7946L18.8152 13.0277L17.3395 38.0454L11.9901 17.2242L13.7425 16.3711L10.1916 10.9525L8.62363 11.967L7.47074 3.43562L0.783966 7.30933"/><path id="shape30" transform="matrix(6.12303176911189e-17 1 -1 6.12303176911189e-17 175.945637001069 496.929353353648)" fill="#ffffff" fill-rule="evenodd" stroke="#ffffff" stroke-width="2" stroke-linecap="square" stroke-linejoin="bevel" d="M1.59783 16.9728L15.5217 0L18.5543 2.90217L8.18478 19.5978L20.1522 13.1902L23.5761 25.7446L18.0978 36.3913L7.36957 45.4076L2.41304 37.7609L8.67391 38.0543L13.663 36.3098L15.6522 26.6739L13.4348 21.4728L10.3043 25.9239L3.91304 34.4511L0 23.2826L1.59783 16.9728"/><path id="shape31" transform="matrix(6.12303176911189e-17 1 -1 6.12303176911189e-17 145.358679909931 481.635874808079)" fill="#ffffff" fill-rule="evenodd" stroke="#ffffff" stroke-width="2" stroke-linecap="square" stroke-linejoin="bevel" d="M0 13.4348L5.44565 1.53261L8.73913 0L12.75 28.4511L8.25 31.0598L5.34783 12.9457L0.619565 17.6739L0 13.4348"/><path id="shape32" transform="matrix(6.12303176911189e-17 1 -1 6.12303176911189e-17 271.043464858342 501.119570822957)" fill="#ffffff" fill-rule="evenodd" stroke="#ffffff" stroke-width="2" stroke-linecap="square" stroke-linejoin="bevel" d="M1.01087 1.67935L0.228261 8.03804L22.0435 38.3478L24.3587 37.4674L19.2391 19.125L16.3043 22.4674L2.08696 0L0 2.625L1.01087 1.67935"/><path id="shape33" transform="matrix(6.12303176911189e-17 1 -1 6.12303176911189e-17 253.043464523259 499.684788187551)" fill="#ffffff" fill-rule="evenodd" stroke="#ffffff" stroke-width="2" stroke-linecap="square" stroke-linejoin="bevel" d="M1.30435 1.125L2.54348 24.8967L6.06522 24.6196L6.45652 13.9402L16.5978 44.2826L19.8587 51.375L24.6848 50.7391L26.087 45.4728L25.0435 34.4348L19.1413 22.0435L17.5435 24.2609L21.3261 40.1739L17.7717 37.4348L8.83696 9.99457L3.97826 0L0 0.179348L1.30435 1.125"/><path id="shape34" transform="matrix(6.12303176911189e-17 1 -1 6.12303176911189e-17 349.782568442722 350.902183386047)" fill="#ffffff" fill-rule="evenodd" stroke="#ffffff" stroke-width="2" stroke-linecap="square" stroke-linejoin="bevel" d="M11.4783 2.21739L0 9.58696L6.13044 14.6087L19.8261 15.5543L31.8913 10.2391L39.2609 2.38043L28.3043 0.26087L16.4348 0L17.6739 2.73913L27.587 2.18478L31.7609 4.33696L21.2609 10.0435L6.32609 12.0978L8.47826 8.02174L18.1957 3.22826L21.1304 1.04348L15.7174 0.0652174L11.4783 2.21739"/><path id="shape35" transform="matrix(6.12303176911189e-17 1 -1 6.12303176911189e-17 346.847785649793 384.750011597828)" fill="#ffffff" fill-rule="evenodd" stroke="#ffffff" stroke-width="2" stroke-linecap="square" stroke-linejoin="bevel" d="M16.9565 0L17.4783 1.56522L28.5 3.61957L12.7826 6L0.847826 8.86957L0 12.7826L6.71739 14.5109L20.3478 14.4783L28.4348 12L23.6739 10.9891L10.9565 11.3478L8.80435 10.0109L21.913 7.56522L36 4.98913L44.2174 3.48913L16.9565 0"/><path id="shape36" transform="matrix(6.12303176911189e-17 1 -1 6.12303176911189e-17 321.391262312609 275.380439514675)" fill="#ffffff" fill-rule="evenodd" stroke="#ffffff" stroke-width="2" stroke-linecap="square" stroke-linejoin="bevel" d="M2.54348 37.4674L42.7826 0L44.413 3.09783L13.3696 30.0652L10.8913 36.163L0 39.9457L2.54348 37.4674"/><path id="shape37" transform="matrix(6.12303176911189e-17 1 -1 6.12303176911189e-17 328.695610597232 277.858700539815)" fill="#ffffff" fill-rule="evenodd" stroke="#ffffff" stroke-width="2" stroke-linecap="square" stroke-linejoin="bevel" d="M0 36.3261L31.7609 13.1413L33.4565 6.03261L38.087 0L35.5435 0L29.7391 4.56522L28.6957 4.1413L24.9783 8.57609L8.41304 27.6196L27.3261 10.8261L26.4783 14.4783L8.86957 26.413L0 36.3261"/><path id="shape38" transform="matrix(6.12303176911189e-17 1 -1 6.12303176911189e-17 94.2390741399076 320.141311889792)" fill="#ffffff" fill-rule="evenodd" stroke="#ffffff" stroke-width="2" stroke-linecap="square" stroke-linejoin="bevel" d="M0.521739 3.22826L6.3913 4.20652L22.1087 23.1848L24.6522 21.2935L8.02174 0L0 0.26087L0.521739 3.22826"/><path id="shape39" transform="matrix(6.12303176911189e-17 1 -1 6.12303176911189e-17 93.978204558314 338.923921764537)" fill="#ffffff" fill-rule="evenodd" stroke="#ffffff" stroke-width="2" stroke-linecap="square" stroke-linejoin="bevel" d="M0 4.33696L4.82609 6.52174L13.7609 5.34783L21.5217 7.5L16.4348 11.9348L16.9565 14.2826L23.6739 13.3043L30.6522 19.8913L29.1522 23.7065L22.6304 22.8261L16.3696 20.5435L19.2391 24.4239L25.2391 27.0326L33.5217 27.8804L38.3478 24.0652L36.587 20.0217L32.0217 16.0109L26.5435 10.9891L25.5 6.55435L16.0435 0.326087L6.19565 0L0 4.33696"/><path id="shape40" transform="matrix(6.12303176911189e-17 1 -1 6.12303176911189e-17 174.391253084568 257.597829702706)" fill="#ffffff" fill-rule="evenodd" stroke="#ffffff" stroke-width="2" stroke-linecap="square" stroke-linejoin="bevel" d="M1.36957 2.25L8.6087 17.1196L8.41304 15.163L29.4783 50.0217L32.2174 46.3696L4.82609 1.79348L0 0L1.36957 2.25"/><path id="shape41" transform="matrix(6.12303176911189e-17 1 -1 6.12303176911189e-17 165.554296008081 254.989133886769)" fill="#ffffff" fill-rule="evenodd" stroke="#ffffff" stroke-width="2" stroke-linecap="square" stroke-linejoin="bevel" d="M0 3.16304L1.95652 0L29.9348 41.7391L27.7826 44.087L8.02174 14.1522L4.82609 14.5435L0 3.16304"/>
</svg>
